<mxfile host="app.diagrams.net" modified="2024-07-17T06:17:51.678Z" agent="Mozilla/5.0 (Macintosh; Intel Mac OS X 10_15_7) AppleWebKit/605.1.15 (KHTML, like Gecko) Version/16.6 Safari/605.1.15" version="24.7.0" etag="6y-mdFOmQ-Zck_Iif5W0" type="github">
  <diagram name="Page-1" id="8Ya9AoaUgUPN6SYW6l8I">
    <mxGraphModel>
      <root>
        <mxCell id="0" />
        <mxCell id="1" parent="0" />
      </root>
    </mxGraphModel>
  </diagram>
</mxfile>
